<svg width="570" height="337" viewBox="0 0 570 337" fill="none" xmlns="http://www.w3.org/2000/svg">
<path d="M414.5 80.4999C417.3 80.4999 422.667 91.1666 425 96.4999L421 104C417 106.5 408.5 112.1 406.5 114.5C404.5 116.9 412 142.5 416 155H364.5V153C362.334 142.167 357.9 118.7 357.5 111.5C357 102.5 358 85.9999 359 82.9999C360 79.9999 374 81.9999 380 80.4999C386 78.9999 411 80.4999 414.5 80.4999Z" fill="#EF428C"/>
<path d="M8.2966 155L49.7796 67.8857L91.2626 155H72.5953L49.7796 107.295L26.964 155H8.2966ZM94.5035 155L135.987 67.8857L177.47 155H158.802L135.987 107.295L113.171 155H94.5035ZM198.211 125.314V155H181.618V72.034H198.211V101.72L239.694 72.034H264.584L206.508 113.517L264.584 155H239.694L198.211 125.314ZM266.917 155L308.4 67.8857L349.883 155H331.216L308.4 107.295L285.585 155H266.917ZM410.423 155L383.07 105.22H412.108C414.441 105.22 416.386 104.443 417.941 102.887C419.583 101.245 420.404 99.2572 420.404 96.9238C420.404 94.5904 419.583 92.6458 417.941 91.0902C416.386 89.4482 414.441 88.6272 412.108 88.6272H370.625V155H354.032V72.034H412.108C419.022 72.034 424.898 74.4538 429.738 79.2935C434.578 84.1332 436.998 90.0099 436.998 96.9238C436.998 103.838 434.578 109.714 429.738 114.554C424.898 119.394 419.022 121.814 412.108 121.814H408.478L426.886 155H410.423Z" fill="white"/>
<path d="M296.355 217H255.355L251.855 224.5L255.355 253L266.355 264.5H296.355L304.355 243L296.355 217Z" fill="#EF428C"/>
<path d="M226.959 260.755V275H120.122V253.633C120.122 247.697 122.2 242.652 126.355 238.497C130.509 234.343 135.554 232.265 141.49 232.265H169.98C171.983 232.265 173.652 231.598 174.988 230.262C176.397 228.852 177.102 227.146 177.102 225.143C177.102 223.14 176.397 221.47 174.988 220.135C173.652 218.725 171.983 218.02 169.98 218.02H127.245V203.775H169.98C175.915 203.775 180.96 205.853 185.115 210.008C189.27 214.162 191.347 219.207 191.347 225.143C191.347 231.078 189.27 236.123 185.115 240.278C180.96 244.433 175.915 246.51 169.98 246.51H141.49C139.487 246.51 137.78 247.215 136.371 248.625C135.035 249.96 134.367 251.629 134.367 253.633V260.755H226.959ZM276.816 275C266.949 275 258.528 271.55 251.554 264.65C244.654 257.676 241.204 249.255 241.204 239.388C241.204 229.52 244.654 221.136 251.554 214.237C258.528 207.262 266.949 203.775 276.816 203.775C286.684 203.775 295.068 207.262 301.968 214.237C308.942 221.136 312.429 229.52 312.429 239.388C312.429 249.255 308.942 257.676 301.968 264.65C295.068 271.55 286.684 275 276.816 275ZM276.816 260.755C282.752 260.755 287.797 258.678 291.952 254.523C296.106 250.368 298.184 245.323 298.184 239.388C298.184 233.452 296.106 228.407 291.952 224.253C287.797 220.098 282.752 218.02 276.816 218.02C270.881 218.02 265.836 220.098 261.681 224.253C257.526 228.407 255.449 233.452 255.449 239.388C255.449 245.323 257.526 250.368 261.681 254.523C265.836 258.678 270.881 260.755 276.816 260.755ZM433.51 260.755V275H326.674V253.633C326.674 247.697 328.751 242.652 332.906 238.497C337.061 234.343 342.106 232.265 348.041 232.265H376.531C378.534 232.265 380.203 231.598 381.539 230.262C382.948 228.852 383.653 227.146 383.653 225.143C383.653 223.14 382.948 221.47 381.539 220.135C380.203 218.725 378.534 218.02 376.531 218.02H333.796V203.775H376.531C382.466 203.775 387.511 205.853 391.666 210.008C395.821 214.162 397.898 219.207 397.898 225.143C397.898 231.078 395.821 236.123 391.666 240.278C387.511 244.433 382.466 246.51 376.531 246.51H348.041C346.038 246.51 344.331 247.215 342.922 248.625C341.586 249.96 340.919 251.629 340.919 253.633V260.755H433.51ZM554.592 203.775V218.02H462V225.143C462 227.146 462.668 228.852 464.003 230.262C465.413 231.598 467.12 232.265 469.123 232.265H497.613C503.548 232.265 508.593 234.343 512.748 238.497C516.903 242.652 518.98 247.697 518.98 253.633C518.98 259.568 516.903 264.613 512.748 268.768C508.593 272.923 503.548 275 497.613 275H454.878V260.755H497.613C499.616 260.755 501.285 260.087 502.621 258.752C504.03 257.342 504.735 255.636 504.735 253.633C504.735 251.629 504.03 249.96 502.621 248.625C501.285 247.215 499.616 246.51 497.613 246.51H469.123C463.187 246.51 458.142 244.433 453.988 240.278C449.833 236.123 447.755 231.078 447.755 225.143V203.775H554.592Z" fill="white"/>
</svg>
